<svg id="Layer_1" data-name="Layer 1" xmlns="http://www.w3.org/2000/svg" xmlns:xlink="http://www.w3.org/1999/xlink" viewBox="0 0 300 300"><defs><style>.cls-1,.cls-2{fill:none;}.cls-1{clip-rule:evenodd;}.cls-3{clip-path:url(#clip-path);}.cls-4{clip-path:url(#clip-path-2);}.cls-5{fill:#0074d9;}</style><clipPath id="clip-path"><path class="cls-1" d="M193.88,133.55a2.41,2.41,0,0,1-3-.08,12.7,12.7,0,0,0-3.47-2.42,16.48,16.48,0,0,0-6.81-1.32,17.06,17.06,0,0,0-12.86,5.65,19.3,19.3,0,0,0-3.77,6.36,24,24,0,0,0,0,16,19.71,19.71,0,0,0,3.73,6.31,16.93,16.93,0,0,0,5.57,4.16,16.24,16.24,0,0,0,6.9,1.49,15.48,15.48,0,0,0,7.46-1.75,16,16,0,0,0,4-3.43,2.25,2.25,0,0,1,3-.28l8.19,6.1A1.71,1.71,0,0,1,203,173s-4.56,4.95-8.6,6.71a31.08,31.08,0,0,1-12.47,2.62A38.28,38.28,0,0,1,168.45,180a30.88,30.88,0,0,1-10.63-6.53,29.64,29.64,0,0,1-7-10.29,37.65,37.65,0,0,1,0-27,29.78,29.78,0,0,1,7-10.3,30.86,30.86,0,0,1,10.63-6.52,38.28,38.28,0,0,1,13.43-2.28,33.06,33.06,0,0,1,5.49.48,29.85,29.85,0,0,1,5.62,1.53,25.1,25.1,0,0,1,5.31,2.81,20.49,20.49,0,0,1,3.19,2.85,1.81,1.81,0,0,1-.18,2.71Zm-60.53-1.17a2.1,2.1,0,0,1-2.87.18,8.19,8.19,0,0,0-3-1.82,16.36,16.36,0,0,0-5.4-1,14.48,14.48,0,0,0-3.08.35,11.84,11.84,0,0,0-3,1.1,6.55,6.55,0,0,0-2.29,2,5,5,0,0,0-.87,3,4.93,4.93,0,0,0,2.1,4.29,20.12,20.12,0,0,0,5.32,2.54q3.19,1,6.89,2.1a28.61,28.61,0,0,1,6.89,3,16.28,16.28,0,0,1,5.31,5.17,15.67,15.67,0,0,1,2.11,8.67,19.89,19.89,0,0,1-1.93,9,18.25,18.25,0,0,1-5.23,6.39,22.16,22.16,0,0,1-7.63,3.77,35.31,35.31,0,0,1-20.42-.61c-3.45-1.23-8-4.78-8-4.78A1.76,1.76,0,0,1,98,173l7-7.73a1.92,1.92,0,0,1,2.77-.09,14.55,14.55,0,0,0,3.89,3,15,15,0,0,0,10,1.14,11,11,0,0,0,3.07-1.19,6.55,6.55,0,0,0,2.2-2,5,5,0,0,0,.83-2.89,5.23,5.23,0,0,0-2.15-4.43,19.76,19.76,0,0,0-5.4-2.76c-2.16-.75-4.51-1.51-7-2.27a31.46,31.46,0,0,1-7-3.07,17,17,0,0,1-5.4-5.08,14.54,14.54,0,0,1-2.15-8.32,18.55,18.55,0,0,1,2-8.76,18.87,18.87,0,0,1,5.27-6.31,23,23,0,0,1,7.59-3.81,31.08,31.08,0,0,1,8.87-1.27,35,35,0,0,1,10.18,1.49,30.23,30.23,0,0,1,7.23,3.87,1.68,1.68,0,0,1,.3,2.59ZM57.79,94.13a4.66,4.66,0,0,0-2.11,3.64v104.1a4.66,4.66,0,0,0,2.11,3.64l90.36,52.05a4.68,4.68,0,0,0,4.22,0l90.35-52.05a4.63,4.63,0,0,0,2.11-3.64V97.77a4.63,4.63,0,0,0-2.11-3.64l-90.35-52a4.68,4.68,0,0,0-4.22,0ZM147,22.29a7.67,7.67,0,0,1,6.95,0L259.39,83.05a7.65,7.65,0,0,1,3.48,6V210.58a7.64,7.64,0,0,1-3.48,6L153.91,277.34a7.7,7.7,0,0,1-6.95,0L41.47,216.58a7.64,7.64,0,0,1-3.47-6V89.05a7.65,7.65,0,0,1,3.47-6Z"/></clipPath><clipPath id="clip-path-2"><rect class="cls-2" width="300" height="300"/></clipPath></defs><title>Stone Circle Logo</title><g class="cls-3"><g class="cls-4"><rect class="cls-5" x="33" y="16.46" width="234.87" height="266.71"/></g></g></svg>